<?xml version="1.0" encoding="utf-8"?>
<!-- Generator: Adobe Illustrator 23.0.1, SVG Export Plug-In . SVG Version: 6.00 Build 0)  -->
<svg version="1.1" xmlns="http://www.w3.org/2000/svg" xmlns:xlink="http://www.w3.org/1999/xlink" x="0px" y="0px"
	 viewBox="0 0 400 400" style="enable-background:new 0 0 400 400;" xml:space="preserve">
<style type="text/css">
	.st0{fill:#15FFCD;}
	.st1{fill:#9600FF;}
	.st2{fill:none;stroke:#000000;stroke-width:4;stroke-miterlimit:10;}
</style>
<g id="Fundo">
	<g>
		<path class="st0" d="M159.09,270.15c-14.15,0-25.67-11.51-25.67-25.67v-92.66c0-14.15,11.51-25.67,25.67-25.67h87.66
			c14.15,0,25.67,11.51,25.67,25.67v92.66c0,14.15-11.51,25.67-25.67,25.67H159.09z"/>
		<path d="M246.75,127.65c13.33,0,24.17,10.84,24.17,24.17v92.66c0,13.33-10.84,24.17-24.17,24.17h-87.66
			c-13.33,0-24.17-10.84-24.17-24.17v-92.66c0-13.33,10.84-24.17,24.17-24.17H246.75 M246.75,124.65h-87.66
			c-15,0-27.17,12.16-27.17,27.17v92.66c0,15,12.16,27.17,27.17,27.17h87.66c15,0,27.17-12.16,27.17-27.17v-92.66
			C273.92,136.81,261.75,124.65,246.75,124.65L246.75,124.65z"/>
	</g>
</g>
<g id="Texto">
	<g>
		<path class="st1" d="M108.31,259.12c0.08,2.41,0.24,4.67,0.51,6.62c0.06,0.4-0.25,0.59-0.58,0.46c-0.76-0.29-1.55-1.24-2.05-3.63
			c-0.12-0.65-0.24-1.54-0.31-2.55c-1.02,0.06-1.62-0.28-1.88-0.46c-0.45-0.34-0.47-0.52,0.09-0.78c0.53-0.24,1.09-0.49,1.66-0.81
			c-0.27-6.39,0.23-16.25,1.99-21.56c0.27-0.8,0.61-1.01,1.26-0.75c0.65,0.27,0.8,0.27,1.69,0.92c0.87,0.61,1.31,1.39,1.59,2.52
			c0.82,3.29,2.07,7.42,3.81,11.63c1.25-0.31,2.07,0.14,2.66,0.78c0.27,0.27,0.19,0.46-0.19,0.55c-0.48,0.16-1.01,0.39-1.61,0.73
			c0.89,1.95,1.88,3.98,2.96,5.85c0.22,0.35,0.08,0.58-0.32,0.64c-0.89,0.12-1.98-0.39-3.26-2.34c-0.44-0.69-0.97-1.61-1.52-2.71
			C112.49,255.95,109.95,258.13,108.31,259.12z M113.78,251.96c-1.75-3.92-3.52-8.88-4.15-12.24c-0.77,4.59-1.28,10.75-1.32,16.51
			C110.31,254.72,112.18,253.01,113.78,251.96z"/>
		<path class="st1" d="M124.74,236.66c1.25-0.54,3.38,0.47,3.65,2.81c0.23,1.98,0.15,5.6,0.49,7.89c0.36,2.57,1.59,4.06,2.79,3.21
			c1.37-0.96,1.63-4.31,1.42-7.55c-0.02-0.42,0.22-0.57,0.56-0.41c0.48,0.23,0.91,1.07,1.06,2.37c0.29,2.52-0.78,5.65-2.78,6.92
			c-2.94,1.85-4.97,0.14-5.87-3.49c-0.99-4.1-0.26-9.68-1.06-9.56c-0.43,0.08-1.83,2.31-2.51,6.12c-0.64,3.49-0.08,7.77,0.49,11.95
			c0.06,0.4-0.06,0.67-0.57,0.55c-1.13-0.26-2.05-1.26-2.59-3.34c-0.68-2.61-1.04-9.08-0.89-13.67c0-0.53,0.3-0.67,0.72-0.46
			c1.06,0.54,1.77,1.73,2.17,3.22C122.34,240.58,123.49,237.2,124.74,236.66z"/>
		<path class="st1" d="M135.2,230.07c-0.14,0.77-1.18,1.27-2.26,0.7c-1.14-0.58-1.62-1.73-1.44-2.66c0.18-0.93,1.44-1.15,2.48-0.5
			C135,228.22,135.34,229.3,135.2,230.07z M133.18,243.93c-0.72-3.06-1.01-8.57-0.87-11.17c0.05-0.61,0.23-0.87,0.7-0.73
			c0.87,0.23,2.08,1.54,2.34,3.78c0.23,1.98,0.26,5.24,0.62,7.42c0.43,2.52,1.35,3.83,2.41,3.06c1.51-1.05,1.97-4.52,1.51-7.56
			c-0.02-0.42,0.24-0.54,0.55-0.35c0.63,0.38,0.98,1.17,1.11,2.29c0.31,2.79-0.95,5.62-2.88,6.83
			C136.04,249.17,133.99,247.37,133.18,243.93z"/>
		<path class="st1" d="M145.15,223.75c1.19-0.71,2.97,0.73,3.48,2.54c0.63-2.67,1.92-5.75,3.08-6.43c1.27-0.75,2.83,1.11,3.22,3.28
			c0.36,1.95,0.1,5.29,0.33,7.56c0.27,2.58,1.76,3.86,2.98,3.04c1.4-0.93,1.51-4.18,1.34-7.45c-0.02-0.42,0.25-0.59,0.58-0.46
			c0.33,0.13,0.94,1.34,1.06,2.37c0.27,2.58-0.85,5.7-2.85,6.96c-3,1.89-5.61,0.21-6.12-3.43c-0.53-3.67,0.11-9.47-0.52-9.32
			c-0.34,0.07-1.28,1.19-2.11,4.85c-1.06,4.67-0.66,9.05-0.07,13.21c0.05,0.55-0.16,0.82-0.69,0.67c-0.91-0.15-2.24-1.19-2.81-4.31
			c-0.67-3.58,0.06-10.7-0.78-10.5c-0.52,0.09-1.63,2.09-2.31,5.9c-0.64,3.49-0.28,7.75,0.39,11.86c0.06,0.4-0.06,0.67-0.55,0.59
			c-1.17-0.18-2.06-1.21-2.59-3.34c-0.65-2.63-1.19-9.09-1.06-13.7c0-0.53,0.3-0.67,0.73-0.46c1.2,0.6,1.94,2.01,2.29,3.72
			C142.58,228.16,143.89,224.49,145.15,223.75z"/>
		<path class="st1" d="M166.43,210.67c0.03-0.65,0.26-0.89,0.7-0.73c0.91,0.3,2.12,1.61,2.38,3.85c0.22,2.03,0.13,5.71,0.45,8.06
			c0.35,2.48,1.26,3.98,2.39,3.17c1.37-0.96,1.79-4.5,1.5-7.65c-0.02-0.42,0.2-0.61,0.53-0.38c0.33,0.22,0.88,1.09,1.04,2.34
			c0.3,2.47-0.68,5.74-2.64,6.83c-1.93,1.07-3.59,0.58-4.62-1.05c-0.21,2.11-0.96,4.37-2.62,5.41c-3.21,2.02-6.63-1.95-6.4-7.93
			c0.23-5.84,1.98-9.11,3.7-10.2c1.48-0.94,2.89-0.23,3.67,1.16C166.44,212.45,166.4,211.46,166.43,210.67z M164.56,213.83
			c-1.17,0.59-2.28,4.43-2.24,8.7c0.04,4.12,1.51,7.44,2.87,6.63c1.44-0.86,1.84-4.2,1.69-8.35
			C166.67,215.64,165.63,213.3,164.56,213.83z"/>
		<path class="st1" d="M172.39,214.15c-0.53-5.74,1.78-9.8,4.16-9.86c1.28-0.03,2.18,0.17,3.09,0.7c1.64,0.99,1.41,3.69,1.9,5.99
			c0.12,0.5,0.05,0.69-0.55,0.73c-1.09,0.11-2.23-0.62-2.72-2.48c-0.4-1.48-0.3-3.62-1.03-3.69c-0.89-0.11-2.09,3.73-1.66,7.85
			c0.56,5.1,3.09,7.51,5.15,6.26c2.92-1.79,3.67-6.12,3.71-9.19c0-0.39,0.29-0.61,0.64-0.36c0.28,0.21,0.68,1.16,0.68,2.46
			c-0.03,2.86-1.69,6.28-4.29,7.96c-0.35,0.22-0.71,0.4-1.04,0.56c-0.01,0.44,0.05,0.84,0.09,1.05c0.57-0.31,1.15-0.24,1.81,0.12
			c0.81,0.45,0.89,0.88,0.95,1.43c0.07,0.87-0.53,1.68-1.12,2.06c-0.52,0.33-1.29,0.48-2.04,0.13c-0.4-0.18-0.32-0.43-0.07-0.58
			c1.55-0.83,2-2.03,1.71-2.19c-0.31-0.19-0.68,0.14-1,0.48c-0.38,0.39-0.67,0.47-1.2,0.32c-0.58-0.16-0.68-0.39-0.76-0.82
			c-0.05-0.31-0.05-0.93-0.06-1.55C175.53,221.82,172.82,218.75,172.39,214.15z"/>
		<path class="st1" d="M191.19,195.07c0.03-0.64,0.26-0.89,0.7-0.73c0.91,0.3,2.12,1.61,2.38,3.85c0.22,2.03,0.13,5.71,0.45,8.06
			c0.36,2.48,1.26,3.98,2.39,3.18c1.37-0.96,1.79-4.51,1.5-7.65c-0.03-0.42,0.2-0.61,0.53-0.38c0.33,0.22,0.88,1.09,1.04,2.34
			c0.3,2.47-0.68,5.73-2.64,6.83c-1.93,1.07-3.59,0.58-4.62-1.05c-0.21,2.11-0.96,4.37-2.62,5.41c-3.21,2.02-6.63-1.95-6.4-7.93
			c0.23-5.84,1.98-9.11,3.7-10.2c1.48-0.93,2.89-0.23,3.67,1.16C191.2,196.85,191.15,195.86,191.19,195.07z M186.39,193.13
			c1.41-1.28,3.6-0.87,4.91-3c0.23-0.33,0.5-0.36,0.56,0.13c0.17,1.04-0.11,1.9-0.77,2.61c-1.59,1.68-4.13,1.4-5.2,3.23
			c-0.2,0.37-0.45,0.28-0.52-0.06C185.19,195.28,185.5,193.93,186.39,193.13z M189.32,198.23c-1.17,0.59-2.28,4.43-2.24,8.7
			c0.04,4.12,1.51,7.44,2.87,6.63c1.44-0.86,1.84-4.2,1.68-8.35C191.42,200.04,190.38,197.7,189.32,198.23z"/>
		<path class="st1" d="M207.69,193.55c1.12,3.39,1.15,8.25-0.86,10.72c-0.98,1.2-2.79,2.15-5.31,1.22
			c-2.78-1.04-4.16-4.37-4.34-8.12c-0.17-3.17,0.68-6.5,2.66-7.95c1.03-0.74,1.81-0.8,3.09-0.31c1.47,0.57,2.66,0.16,4.02,2.77
			c0.14,0.3,0.29,0.54,0.43,0.84c0.21-0.13,0.37-0.33,0.65-0.5c0.24-0.15,0.35,0.02,0.32,0.28
			C208.27,192.94,208.01,193.3,207.69,193.55z M204.21,194.53c-1.07-0.09-2.66-0.78-3.5-2.04c-0.43,1.38-0.71,3.15-0.61,4.92
			c0.2,3.54,1.69,7.04,3.06,7.23c1.47,0.18,2.81-2.35,2.5-6.59c-0.09-1.29-0.29-2.52-0.53-3.52
			C204.82,194.59,204.52,194.58,204.21,194.53z M203.45,190.72c-0.87-1-1.43-0.35-0.97,0.76c0.41,1.04,1.43,1.8,2.3,1.97
			C204.38,192.21,203.94,191.28,203.45,190.72z"/>
		<path class="st1" d="M229.58,189.79c-1.39,1.55-3.39,3.2-6.2,2.94c-1.83-0.15-3.85-1.05-5.66-3.86
			c-4.75-7.38-1.91-18.33,1.19-22.07c1.54-1.84,3.07-2.85,4.79-2.73c1.4,0.08,2.5,0.6,3.34,1.32c0.92,0.77,1.44,1.75,1.65,3.16
			c0.17,1.19,0.49,2.92,0.74,4.16c0.07,0.34-0.02,0.73-0.62,0.63c-1.14-0.05-2.32-0.71-2.96-2.71c-0.64-2.01-0.58-4.75-1.82-5.03
			c-1.82-0.44-5.58,6.07-5.7,13.15c-0.12,6.93,3.29,12.11,5.48,12.52c3.01,0.56,5.42-4.57,4.89-10.08c-0.97,0.9-1.95,1.81-2.73,2.4
			c-1.62,1.26-3.15,1.21-4.36,0.43c-0.39-0.24-0.42-0.51,0-0.77c2.67-1.73,4.75-4.25,6.84-5.61c1.71-1.12,3.15-0.97,4.25-0.22
			c0.41,0.27,0.49,0.56,0,0.77c-0.7,0.34-1.54,0.92-2.37,1.59C233.25,182.45,231,188.22,229.58,189.79z"/>
		<path class="st1" d="M238.9,166.16c0.24-0.54,0.47-0.78,0.89-0.66c1.11,0.31,2.9,1.31,2.62,3.08c-0.44,2.74-0.76,5.98-0.19,8.13
			c0.58,2.14,1.84,3.23,2.86,2.63c1.39-0.78,1.7-3.96,1.24-7.14c-0.04-0.36,0.15-0.53,0.46-0.34c0.41,0.27,0.97,1.08,1.18,2.25
			c0.47,2.5-0.62,5.22-2.5,6.3c-2.55,1.46-4.99-0.18-5.76-3.32c-0.68-2.76-0.22-6.47,0.16-8.93c-0.89,1.96-2.18,3.2-3.21,3.86
			c0.21,3.24-0.01,10.24,1.31,13.79c0.13,0.35,0.03,0.66-0.48,0.54c-1.65-0.41-2.65-1.99-2.83-4.34c-0.16-2.02,0.11-6.72,0.23-9.36
			c-2.77-0.04-2.34-6-1.08-6.84c1.05-0.71,2.04,1.47,2.54,4.19C237.36,169.15,238.19,167.86,238.9,166.16z"/>
		<path class="st1" d="M252.95,156.15c0.03-0.65,0.26-0.89,0.7-0.73c0.91,0.29,2.12,1.61,2.38,3.85c0.22,2.03,0.13,5.71,0.45,8.06
			c0.36,2.48,1.26,3.98,2.39,3.17c1.37-0.96,1.79-4.51,1.5-7.65c-0.02-0.42,0.2-0.61,0.53-0.38c0.33,0.22,0.88,1.09,1.04,2.34
			c0.3,2.46-0.68,5.73-2.64,6.83c-1.93,1.07-3.59,0.57-4.62-1.05c-0.21,2.11-0.96,4.37-2.62,5.41c-3.21,2.02-6.63-1.95-6.4-7.93
			c0.23-5.84,1.98-9.11,3.7-10.2c1.48-0.94,2.89-0.23,3.67,1.16C252.96,157.93,252.92,156.94,252.95,156.15z M253.01,151.19
			c-0.87,1.37-2.07,3.52-2.8,4.37c-0.61,0.72-1.28,1.1-1.77,1.17c-0.36,0.04-0.51-0.12-0.31-0.58c0.52-1.24,1.39-3.14,2.02-4.07
			c0.67-1,1.8-1.43,2.52-1.44C253.04,150.64,253.24,150.8,253.01,151.19z M251.08,159.31c-1.17,0.59-2.28,4.43-2.24,8.7
			c0.04,4.12,1.51,7.44,2.87,6.63c1.44-0.86,1.84-4.2,1.69-8.35C253.18,161.12,252.14,158.78,251.08,159.31z"/>
		<path class="st1" d="M266.94,162.67c0.24,0.38,0.44,0.78,0.67,1.22c0.77-1.69,1.06-4.29,0.83-6.65c-0.05-0.55,0.27-0.8,0.75-0.42
			c0.5,0.41,0.77,1.3,0.96,2.29c0.18,1.05-0.27,4.17-1.88,6.2c1.64,3.84,2.54,8.62,2.19,11.74c-0.26,2.19-1.04,2.87-2.64,2.63
			c-1.32-0.18-3.2-0.87-4.67-4.05c-3.89-8.31-4.28-26.54-4.06-34.68c0.02-0.59,0.49-0.84,0.89-0.51c1.15,0.91,1.99,2.46,2.09,5.92
			c0.06,3.24,0.14,8.64,0.56,13.44C264.2,159.38,265.54,160.37,266.94,162.67z M264.81,162.96c-0.77-1.3-1.79-2.15-1.97-1.9
			c-0.26,0.36,0.58,2.38,1.05,3.2c0.66,1.13,1.43,1.66,2.17,1.38C265.71,164.7,265.27,163.77,264.81,162.96z M267.35,178.09
			c1.39,0.52,0.98-5.87-0.86-11.32c-1.07,0.53-2.04,0.51-2.98-0.05C264.47,172.52,265.92,177.59,267.35,178.09z"/>
		<path class="st1" d="M270.66,144.7c-0.14,0.77-1.18,1.27-2.26,0.7c-1.14-0.58-1.62-1.73-1.44-2.66c0.18-0.94,1.44-1.15,2.48-0.5
			C270.46,142.85,270.81,143.93,270.66,144.7z M268.64,158.56c-0.72-3.06-1.01-8.57-0.87-11.17c0.05-0.61,0.23-0.87,0.7-0.73
			c0.87,0.23,2.08,1.54,2.34,3.78c0.23,1.98,0.26,5.24,0.62,7.42c0.43,2.52,1.35,3.83,2.41,3.06c1.51-1.05,1.97-4.52,1.51-7.56
			c-0.02-0.42,0.24-0.54,0.55-0.35c0.62,0.38,0.98,1.17,1.11,2.29c0.31,2.79-0.95,5.62-2.88,6.83
			C271.51,163.8,269.46,162,268.64,158.56z"/>
		<path class="st1" d="M281.59,140.75c1.64,0.99,1.41,3.69,1.9,5.99c0.12,0.5,0.05,0.69-0.55,0.73c-1.09,0.11-2.23-0.62-2.72-2.48
			c-0.4-1.48-0.3-3.62-1.03-3.69c-0.89-0.11-2.09,3.73-1.66,7.85c0.56,5.1,3.09,7.51,5.15,6.26c2.92-1.79,3.67-6.12,3.71-9.19
			c0-0.39,0.29-0.62,0.64-0.36c0.28,0.21,0.68,1.16,0.68,2.46c-0.03,2.86-1.69,6.27-4.29,7.96c-4.34,2.83-8.52-0.51-9.09-6.38
			c-0.53-5.74,1.78-9.8,4.16-9.86C279.77,140.02,280.68,140.22,281.59,140.75z"/>
		<path class="st1" d="M293.13,130.83c0.03-0.65,0.26-0.89,0.7-0.73c0.91,0.29,2.12,1.61,2.38,3.85c0.22,2.03,0.13,5.71,0.45,8.06
			c0.35,2.48,1.26,3.98,2.39,3.17c1.37-0.96,1.79-4.51,1.5-7.65c-0.02-0.42,0.2-0.61,0.53-0.38c0.33,0.22,0.88,1.09,1.04,2.34
			c0.3,2.46-0.68,5.73-2.64,6.83c-1.93,1.07-3.59,0.57-4.62-1.05c-0.21,2.11-0.96,4.37-2.62,5.41c-3.21,2.02-6.63-1.95-6.4-7.93
			c0.23-5.84,1.98-9.11,3.7-10.2c1.48-0.94,2.89-0.23,3.67,1.16C293.14,132.61,293.1,131.62,293.13,130.83z M291.26,133.98
			c-1.17,0.59-2.28,4.43-2.24,8.7c0.04,4.12,1.51,7.44,2.88,6.63c1.44-0.86,1.84-4.2,1.68-8.35
			C293.37,135.79,292.33,133.46,291.26,133.98z"/>
	</g>
</g>
<g id="Rebordo">
	<path class="st2" d="M304.33,326.15H101.51c-14.69,0-26.59-11.91-26.59-26.59V96.74c0-14.69,11.91-26.59,26.59-26.59h202.82
		c14.69,0,26.59,11.91,26.59,26.59v202.82C330.92,314.24,319.01,326.15,304.33,326.15z"/>
</g>
</svg>
