<?xml version="1.0" encoding="utf-8"?>
<!-- Generator: Adobe Illustrator 23.0.1, SVG Export Plug-In . SVG Version: 6.00 Build 0)  -->
<svg version="1.1" xmlns="http://www.w3.org/2000/svg" xmlns:xlink="http://www.w3.org/1999/xlink" x="0px" y="0px"
	 viewBox="0 0 800 600" style="enable-background:new 0 0 800 600;" xml:space="preserve">
<style type="text/css">
	.st0{fill:#FFFFFF;stroke:#000000;stroke-width:3;stroke-miterlimit:10;}
</style>
<g id="background">
	<circle cx="400" cy="297.61" r="290.02"/>
</g>
<g id="title">
	<g>
		<path d="M167.62,325.51l44.34-2.78c0.96,7.2,2.91,12.69,5.86,16.46c4.8,6.1,11.66,9.16,20.57,9.16c6.65,0,11.78-1.56,15.38-4.68
			c3.6-3.12,5.4-6.74,5.4-10.85c0-3.91-1.72-7.41-5.14-10.49c-3.43-3.09-11.38-6-23.87-8.74c-20.44-4.59-35.01-10.7-43.72-18.31
			c-8.78-7.61-13.17-17.32-13.17-29.11c0-7.75,2.25-15.07,6.74-21.96c4.49-6.89,11.25-12.31,20.27-16.25
			c9.02-3.94,21.38-5.92,37.08-5.92c19.27,0,33.96,3.58,44.08,10.75c10.11,7.17,16.13,18.57,18.05,34.2l-43.92,2.57
			c-1.17-6.79-3.62-11.73-7.35-14.81c-3.74-3.09-8.9-4.63-15.48-4.63c-5.42,0-9.5,1.15-12.24,3.45c-2.74,2.3-4.11,5.09-4.11,8.38
			c0,2.4,1.13,4.56,3.4,6.48c2.19,1.99,7.41,3.84,15.64,5.55c20.37,4.39,34.96,8.83,43.77,13.32c8.81,4.49,15.22,10.06,19.24,16.72
			c4.01,6.65,6.02,14.09,6.02,22.32c0,9.67-2.67,18.59-8.02,26.75c-5.35,8.16-12.82,14.35-22.43,18.57
			c-9.6,4.22-21.71,6.33-36.31,6.33c-25.65,0-43.41-4.94-53.29-14.81C174.51,353.29,168.92,340.74,167.62,325.51z"/>
		<path d="M313.08,224.6h48.71l33.94,108.53l33.51-108.53h47.29l-56,150.8h-50.51L313.08,224.6z"/>
		<path d="M560.37,320.78v-31.37h72.01v64.29c-13.78,9.4-25.97,15.79-36.57,19.18c-10.6,3.39-23.16,5.09-37.7,5.09
			c-17.9,0-32.49-3.05-43.77-9.16c-11.28-6.1-20.03-15.19-26.23-27.26c-6.21-12.07-9.31-25.92-9.31-41.56
			c0-16.46,3.39-30.77,10.18-42.95c6.79-12.17,16.73-21.41,29.83-27.72c10.22-4.87,23.97-7.3,41.25-7.3
			c16.67,0,29.13,1.51,37.39,4.53c8.26,3.02,15.12,7.7,20.57,14.04c5.45,6.34,9.55,14.39,12.29,24.12l-44.95,8.02
			c-1.85-5.69-4.99-10.05-9.41-13.06c-4.42-3.02-10.07-4.53-16.92-4.53c-10.22,0-18.36,3.55-24.43,10.65
			c-6.07,7.1-9.1,18.33-9.1,33.69c0,16.32,3.07,27.98,9.21,34.97c6.14,7,14.69,10.49,25.67,10.49c5.21,0,10.18-0.75,14.92-2.26
			c4.73-1.51,10.15-4.08,16.25-7.71v-14.2H560.37z"/>
	</g>
</g>
</svg>
